<svg viewBox="0 0 32 32" xmlns="http://www.w3.org/2000/svg">
  <defs>
    <linearGradient id="gradient" x1="0%" y1="0%" x2="100%" y2="100%">
      <stop offset="0%" style="stop-color:#1f2937;stop-opacity:1" />
      <stop offset="100%" style="stop-color:#4b5563;stop-opacity:1" />
    </linearGradient>
  </defs>
  
  <!-- Background -->
  <rect width="32" height="32" rx="8" fill="url(#gradient)"/>
  
  <!-- Stylized "R" -->
  <g fill="white">
    <!-- R body -->
    <path d="M8 7h7c2.2 0 4 1.8 4 4c0 1.4-0.7 2.6-1.8 3.3l2.8 5.7h-3.2l-2.3-4.8H11v4.8H8V7z"/>
    <!-- R counter -->
    <path d="M11 10.2v2.6h4c0.9 0 1.8-0.4 1.8-1.3s-0.9-1.3-1.8-1.3H11z"/>
  </g>
  
  <!-- Small house roof accent -->
  <path d="M22 6l3 2.5v0.8l-0.8-0.7v2.4h-4.4v-2.4L19 9.1V8.5L22 6z" fill="white" opacity="0.85"/>
</svg>